<?xml version="1.0" encoding="utf-8"?>
<!-- Generator: Adobe Illustrator 18.1.0, SVG Export Plug-In . SVG Version: 6.00 Build 0)  -->
<!DOCTYPE svg PUBLIC "-//W3C//DTD SVG 1.1//EN" "http://www.w3.org/Graphics/SVG/1.1/DTD/svg11.dtd">
<svg version="1.1" id="Layer_1" xmlns="http://www.w3.org/2000/svg" xmlns:xlink="http://www.w3.org/1999/xlink" x="0px" y="0px"
	 viewBox="0 0 612 792" enable-background="new 0 0 612 792" xml:space="preserve">
<g>
	<g>
		<path fill="#FFFFFF" d="M270.9,358.7c-1.1-0.3-2.3-0.4-3.6-0.4c-2.1,0-4,0.4-5.4,0.9c-0.2,0.1-0.3,0.2-0.3,0.4c0,0.1,0,0.1,0,0.2
			c0.2,0.5-0.1,1-1.5,1.3c-2,0.4-3.3,2.5-4,3.2c-0.9,0.8-3.3,1.3-2.9,0.8c0.3-0.4,1.4-1.5,2-2.8c0.6-1.1,1.1-1.5,1.8-2.5
			c0.2-0.3,1-1.4,1.3-2.3c0.3-0.9,0.2-1.9,0.3-2.4c0.1-0.6,0.8-2,0.8-2.8c0-0.4-1.9,0.6-2.7,0.6c-0.9,0-1.8-0.5-2.6-0.6
			c-1,0-1.6,0.8-2.5,0.6c-0.5-0.1-0.9-0.5-1.8-0.6c-1.3,0-2.8,0.7-5.7,0.6c-2.9-0.1-5.5-3.6-5.9-4.2c-0.4-0.7-0.9-0.7-1.5-0.1
			c-0.6,0.5-1.3,0.1-1.5-0.2c-0.4-0.7-1.4-2.6-2.9-3c-2.2-0.6-3.2,1.2-3.1,2.6c0.1,1.4,1.1,1.8,1.5,2.6c0.4,0.8,0.6,1.2,1.4,1.6
			c0.6,0.2,0.8,0.6,0.6,1c-0.1,0.4-0.7,0.5-1.1,0.5c-0.8,0-1.4-0.2-1.8-0.5c-0.5-0.3-0.9-0.7-1.3-1.5c-0.5-0.8-1.3-1.2-2.2-1.2
			c-0.4,0-0.8,0.1-1.2,0.3c-1.4,0.7-3.1,1.2-4.9,1.2l-2,0c3.9,11.6,14.9,20,27.9,20C256.5,372.1,265.6,366.8,270.9,358.7"/>
		<path d="M275.3,357.1h0.3l0.4,0.7h0.3l-0.4-0.7c0.2,0,0.4-0.1,0.4-0.4c0-0.3-0.2-0.4-0.5-0.4h-0.6v1.5h0.2V357.1z M275.3,356.9
			v-0.5h0.3c0.2,0,0.3,0,0.3,0.2c0,0.2-0.2,0.2-0.4,0.2H275.3z"/>
		<path d="M277,357c0,0.8-0.7,1.5-1.5,1.5s-1.5-0.7-1.5-1.5c0-0.8,0.7-1.5,1.5-1.5S277,356.2,277,357 M275.6,355.8
			c-0.7,0-1.2,0.5-1.2,1.2c0,0.7,0.5,1.2,1.2,1.2c0.7,0,1.2-0.5,1.2-1.2C276.8,356.4,276.2,355.8,275.6,355.8"/>
		<path d="M270.9,358.7c-1.1-0.3-2.3-0.4-3.6-0.4c-2.1,0-4,0.4-5.4,0.9c-0.2,0.1-0.3,0.2-0.3,0.4c0,0.1,0,0.1,0,0.2
			c0.2,0.5-0.1,1-1.5,1.3c-2,0.4-3.3,2.5-4,3.2c-0.9,0.8-3.3,1.3-2.9,0.8c0.3-0.4,1.4-1.5,2-2.8c0.6-1.1,1.1-1.5,1.8-2.5
			c0.2-0.3,1-1.4,1.3-2.3c0.3-0.9,0.2-1.9,0.3-2.4c0.1-0.6,0.8-2,0.8-2.8c0-0.4-1.9,0.6-2.7,0.6c-0.9,0-1.8-0.5-2.6-0.6
			c-1,0-1.6,0.8-2.5,0.6c-0.5-0.1-0.9-0.5-1.8-0.6c-1.3,0-2.8,0.7-5.7,0.6c-2.9-0.1-5.5-3.6-5.9-4.2c-0.4-0.7-0.9-0.7-1.5-0.1
			c-0.6,0.5-1.3,0.1-1.5-0.2c-0.4-0.7-1.4-2.6-2.9-3c-2.2-0.6-3.2,1.2-3.1,2.6c0.1,1.4,1.1,1.8,1.5,2.6c0.4,0.8,0.6,1.2,1.4,1.6
			c0.6,0.2,0.8,0.6,0.6,1c-0.1,0.4-0.7,0.5-1.1,0.5c-0.8,0-1.4-0.2-1.8-0.5c-0.5-0.3-0.9-0.7-1.3-1.5c-0.5-0.8-1.3-1.2-2.2-1.2
			c-0.4,0-0.8,0.1-1.2,0.3c-1.4,0.7-3.1,1.2-4.9,1.2h-2c-1-3-1.5-6.1-1.5-9.4c0-16.2,13.2-29.4,29.4-29.4s29.4,13.2,29.4,29.4
			C275.6,348.6,273.8,354.1,270.9,358.7"/>
		<path d="M290.6,344.6c0-2.7-0.1-4.7-0.2-6.5h4.4l0.2,3.8h0.1c1-2.8,3.3-4.3,5.5-4.3c0.5,0,0.8,0,1.2,0.1v4.8
			c-0.5-0.1-0.9-0.1-1.5-0.1c-2.4,0-4.1,1.5-4.6,3.9c-0.1,0.4-0.1,1-0.1,1.5v10.5h-5.1L290.6,344.6z"/>
		<path d="M308,349.6c0.1,3.7,3,5.2,6.2,5.2c2.3,0,4-0.4,5.6-0.9l0.8,3.5c-1.7,0.7-4.1,1.3-7,1.3c-6.5,0-10.4-4-10.4-10.2
			c0-5.6,3.4-10.8,9.9-10.8c6.6,0,8.7,5.4,8.7,9.8c0,0.9-0.1,1.7-0.2,2.2L308,349.6z M316.9,346c0-1.9-0.8-4.9-4.2-4.9
			c-3.1,0-4.4,2.8-4.7,4.9H316.9z"/>
		<path d="M338.6,349.5c0,0.5,0,1-0.2,1.5c-0.5,2.2-2.3,3.6-4.4,3.6c-3.2,0-5-2.7-5-6.4c0-3.7,1.8-6.6,5.1-6.6
			c2.3,0,3.9,1.6,4.4,3.6c0.1,0.4,0.1,0.9,0.1,1.3V349.5z M343.7,330.3l-5.1-1.4v11.4h-0.1c-0.9-1.5-2.9-2.6-5.6-2.6
			c-4.8,0-9.1,4-9,10.8c0,6.2,3.8,10.3,8.6,10.3c2.9,0,5.3-1.4,6.5-3.6h0.1l0.2,3.2h4.5c-0.1-1.4-0.2-3.6-0.2-5.7V330.3z"/>
		<path d="M357.1,337.6c-1.5,0-2.9,0.4-4.1,1.2c-1.2,0.7-2.2,1.8-2.8,2.9h-0.1v-9.4l-2-0.6v26.6h2v-12.3c0-0.8,0.1-1.4,0.3-2
			c0.9-2.5,3.2-4.6,6.1-4.6c4.1,0,5.6,3.3,5.6,6.9v11.9h2v-12.2C364.2,338.6,359.1,337.6,357.1,337.6"/>
		<path d="M382.1,353.5c0,1.6,0.1,3.2,0.3,4.8h-1.8l-0.3-2.9h-0.1c-1,1.6-3.2,3.3-6.4,3.3c-4.1,0-5.9-2.9-5.9-5.5
			c0-4.7,4.1-7.5,12.3-7.4v-0.5c0-2-0.4-6-5.2-5.9c-1.8,0-3.6,0.5-5.1,1.5l-0.6-1.5c1.8-1.2,4.1-1.7,5.9-1.7c5.8,0,6.9,4.4,6.9,8
			V353.5z M380.1,347.5c-4.4-0.1-10.2,0.5-10.2,5.4c0,2.9,1.9,4.2,4,4.2c3.4,0,5.3-2.1,6-4c0.1-0.4,0.2-0.9,0.2-1.2V347.5z"/>
		<path d="M390,333.6v4.4h5.8v1.6H390v13.1c0,2.6,0.8,4.2,3,4.2c1,0,1.8-0.1,2.3-0.3l0.2,1.5c-0.7,0.3-1.6,0.5-2.8,0.5
			c-1.5,0-2.7-0.5-3.5-1.4c-0.9-1.1-1.2-2.8-1.2-4.8v-12.8h-3.4v-1.6h3.4v-3.7L390,333.6z"/>
		<path d="M398.3,357.2h0.3l0.4,0.7h0.3l-0.4-0.7c0.2,0,0.4-0.1,0.4-0.4c0-0.3-0.2-0.4-0.5-0.4h-0.6v1.5h0.2V357.2z M398.3,357v-0.5
			h0.3c0.2,0,0.3,0,0.3,0.2c0,0.2-0.2,0.2-0.4,0.2H398.3z"/>
		<path d="M400,357.1c0,0.8-0.7,1.5-1.5,1.5c-0.8,0-1.5-0.7-1.5-1.5c0-0.8,0.7-1.5,1.5-1.5C399.4,355.6,400,356.3,400,357.1
			 M398.6,355.9c-0.7,0-1.2,0.5-1.2,1.2c0,0.7,0.5,1.2,1.2,1.2c0.7,0,1.2-0.5,1.2-1.2C399.8,356.4,399.2,355.9,398.6,355.9"/>
		<path d="M252.6,356c0.2,0.1,0.4,0.6,0.1,1.3c-0.2,0.3-0.4,0.6-0.7,0.8c-0.4,0.3-1.2,0.7-2.3,0c-0.6-0.4-0.6-0.5-1.5-0.4
			c-0.6,0.1-0.8-0.5-0.6-1c0.2-0.5,1.1-0.9,2.2-0.3c0.5,0.3,1.2,0.9,1.9,0.4c0.3-0.2,0.4-0.4,0.8-0.8C252.5,356,252.5,356,252.6,356
			C252.6,356,252.6,356,252.6,356"/>
		<path fill="#CC0000" d="M243.9,327.3c-3.4,0.2-3.8,0.6-4.4,1.3c-0.9,1-2.1-1.2-2.1-1.2c-0.7-0.1-1.6-1.3-1.1-2.4
			c0.5-1.1,1.3-0.7,1.6-0.4c0.3,0.4,1,1.1,1.9,1c0.9,0,1.9-0.2,3.4-0.2c1.5,0,2.4,0.5,2.5,1C245.6,326.8,245.5,327.2,243.9,327.3
			 M247.4,321.7C247.4,321.7,247.4,321.7,247.4,321.7c-0.1,0-0.1,0-0.1-0.1c0,0,0-0.1,0.1-0.1c0.7-0.3,1.6-0.6,2.8-0.7
			c0.3,0,0.7-0.1,1-0.1c0.1,0,0.1,0,0.2,0c1.9,0,3.4,0.8,3.4,1.7c0,0.9-1.6,1.6-3.5,1.5c-0.6,0-1.2-0.1-1.7-0.2
			c-0.1,0-0.1-0.1-0.1-0.1c0-0.1,0-0.1,0.1-0.1c1.2-0.3,2-0.7,1.9-1.1c-0.1-0.6-1.6-0.9-3.4-0.7
			C247.8,321.6,247.6,321.7,247.4,321.7 M262.8,334.9c-0.3,1-0.7,2.2-2.5,3.2c-0.3,0.1-0.4-0.1-0.2-0.3c0.7-1.2,0.8-1.5,1-1.9
			c0.3-0.7,0.4-1.7-0.1-3.7c-1.1-4-3.4-9.3-5.1-11c-1.6-1.7-4.6-2.1-7.2-1.5c-1,0.3-2.9,1.2-6.4,0.4c-6.1-1.4-7,1.7-7.4,3
			c-0.4,1.3-1.2,5.1-1.2,5.1c-0.3,1.5-0.7,4.2,8.9,6.1c4.4,0.8,4.7,2,4.9,2.8c0.4,1.5,0.9,2.3,1.5,2.7c0.6,0.4,0,0.8-0.7,0.8
			c-1.9,0.2-8.9-1.8-13-4.2c-3.4-2.1-3.4-3.9-2.7-5.5c-5.1-0.6-8.9,0.5-9.6,2.9c-1.2,4.1,9.1,11.2,20.9,14.8
			c12.3,3.7,25,1.1,26.4-6.6C270.7,338.6,267.8,336,262.8,334.9"/>
	</g>
</g>
<rect x="216.3" y="386.3" fill="#004153" width="184.1" height="27.2"/>
<g>
	<path fill="#FFFFFF" d="M233.7,397.4v7.7h-1.9v-7.7h-2.7v-1.9h7.4v1.9H233.7z"/>
	<path fill="#FFFFFF" d="M238.2,405.1v-9.5h6.6v1.9h-4.7v1.7h2.7v1.9h-2.7v2.3h4.9v1.9H238.2z"/>
	<path fill="#FFFFFF" d="M251.9,398.3c-0.3-0.7-0.9-1-1.7-1c-1.4,0-2.3,1.3-2.3,3c0,1.7,0.8,3,2.3,3c0.9,0,1.4-0.4,1.9-1.2l1.6,1
		c-0.7,1.3-1.8,2.2-3.5,2.2c-2.5,0-4.2-1.9-4.2-4.9c0-2.9,1.7-4.9,4.2-4.9c1.8,0,2.9,0.9,3.5,2.1L251.9,398.3z"/>
	<path fill="#FFFFFF" d="M261.3,405.1v-4h-3.9v4h-1.9v-9.5h1.9v3.7h3.9v-3.7h1.9v9.5H261.3z"/>
	<path fill="#FFFFFF" d="M271.5,405.1l-3.5-5.2c-0.2-0.4-0.5-0.8-0.7-1.1c0,0.4,0,1.6,0,2.1v4.2h-1.9v-9.5h1.8l3.4,5
		c0.2,0.4,0.5,0.8,0.7,1.1c0-0.4,0-1.6,0-2.1v-4h1.9v9.5H271.5z"/>
	<path fill="#FFFFFF" d="M279.2,405.2c-2.6,0-4.1-2-4.1-4.9s1.5-4.9,4.1-4.9s4.1,2,4.1,4.9S281.8,405.2,279.2,405.2z M279.2,397.3
		c-1.5,0-2.2,1.3-2.2,3s0.6,3,2.2,3s2.2-1.3,2.2-3S280.8,397.3,279.2,397.3z"/>
	<path fill="#FFFFFF" d="M285.2,405.1v-9.5h1.9v7.7h4.8v1.9H285.2z"/>
	<path fill="#FFFFFF" d="M296.8,405.2c-2.6,0-4.1-2-4.1-4.9s1.5-4.9,4.1-4.9s4.1,2,4.1,4.9S299.4,405.2,296.8,405.2z M296.8,397.3
		c-1.5,0-2.2,1.3-2.2,3s0.6,3,2.2,3s2.2-1.3,2.2-3S298.3,397.3,296.8,397.3z"/>
	<path fill="#FFFFFF" d="M306.4,405.2c-2.5,0-4.2-1.9-4.2-4.9c0-2.9,1.7-4.9,4.2-4.9c2,0,3,0.9,3.6,2.4l-1.8,0.8
		c-0.4-0.7-0.8-1.2-1.8-1.2c-1.4,0-2.3,1.3-2.3,3c0,1.8,0.8,3.1,2.3,3.1c1.3,0,1.8-0.6,1.9-1.4h-1.5v-1.8h3.4v1.3
		C310.2,403.8,308.6,405.2,306.4,405.2z"/>
	<path fill="#FFFFFF" d="M316.2,401.3v3.8h-1.9v-3.7l-3.6-5.8h2.2l1.4,2.3c0.3,0.6,0.9,1.5,1,1.9c0.2-0.4,0.7-1.3,1-1.9l1.4-2.3h2.2
		L316.2,401.3z"/>
	<path fill="#FFFFFF" d="M329,401.7h-2.1v3.4H325v-9.5h4.2c1.8,0,3.3,1,3.3,3C332.5,400.7,331,401.7,329,401.7z M329.1,397.4h-2.2
		v2.5h2.2c0.9,0,1.4-0.4,1.4-1.2S330,397.4,329.1,397.4z"/>
	<path fill="#FFFFFF" d="M339.5,405.1l-0.8-2.1h-3.5l-0.8,2.1h-2l3.7-9.5h1.9l3.6,9.5H339.5z M337.5,399.4c-0.2-0.6-0.4-1.1-0.5-1.5
		c-0.1,0.4-0.3,0.9-0.5,1.5l-0.6,1.7h2.2L337.5,399.4z"/>
	<path fill="#FFFFFF" d="M348.8,405.1l-1.7-3.4h-1.9v3.4h-1.9v-9.5h4.4c1.8,0,3.3,1,3.3,3c0,1.4-0.6,2.3-1.8,2.8l1.8,3.7H348.8z
		 M347.6,397.4h-2.5v2.5h2.5c0.9,0,1.4-0.4,1.4-1.2C349,397.7,348.5,397.4,347.6,397.4z"/>
	<path fill="#FFFFFF" d="M356.5,397.4v7.7h-1.9v-7.7h-2.7v-1.9h7.4v1.9H356.5z"/>
	<path fill="#FFFFFF" d="M367,405.1l-3.5-5.2c-0.2-0.4-0.5-0.8-0.7-1.1c0,0.4,0,1.6,0,2.1v4.2H361v-9.5h1.8l3.4,5
		c0.2,0.4,0.5,0.8,0.7,1.1c0-0.4,0-1.6,0-2.1v-4h1.9v9.5H367z"/>
	<path fill="#FFFFFF" d="M371,405.1v-9.5h6.6v1.9H373v1.7h2.7v1.9H373v2.3h4.9v1.9H371z"/>
	<path fill="#FFFFFF" d="M385.3,405.1l-1.7-3.4h-1.9v3.4h-1.9v-9.5h4.4c1.8,0,3.3,1,3.3,3c0,1.4-0.6,2.3-1.8,2.8l1.8,3.7H385.3z
		 M384.2,397.4h-2.5v2.5h2.5c0.9,0,1.4-0.4,1.4-1.2C385.5,397.7,385,397.4,384.2,397.4z"/>
</g>
</svg>
